<?xml version="1.0" encoding="UTF-8" standalone="no"?>
<!DOCTYPE svg PUBLIC "-//W3C//DTD SVG 1.1//EN" "http://www.w3.org/Graphics/SVG/1.1/DTD/svg11.dtd">
<svg width="100%" height="100%" viewBox="0 0 247 433" version="1.1" xmlns="http://www.w3.org/2000/svg" xmlns:xlink="http://www.w3.org/1999/xlink" xml:space="preserve" xmlns:serif="http://www.serif.com/" style="fill-rule:evenodd;clip-rule:evenodd;stroke-linejoin:round;stroke-miterlimit:2;">
    <g transform="matrix(1,0,0,1,-132.59,-686.461)">
        <path d="M220.519,1103.07C210.998,1084.8 206.08,1064.15 206.311,1043.54C206.816,998.6 231.169,957.138 260.719,923.272C290.269,889.406 325.523,860.83 354.609,826.564C363.678,815.88 372.182,804.413 379.549,792.331L379.549,744.031C379.529,738.408 376.502,732.941 373.13,728.44L365.673,718.489C362.674,714.487 360.617,709.897 359.607,705.057L152.533,705.057C151.523,709.897 149.465,714.487 146.467,718.489L139.01,728.44C135.638,732.941 132.61,738.408 132.59,744.031L132.59,1080.21C132.561,1088.5 136.461,1096.31 143.104,1101.27L145.527,1103.07L220.519,1103.07Z" style="fill:rgb(77,192,77);"/>
        <path d="M379.549,860.29C371.445,872.447 362.605,884.185 353.788,895.801C332.82,923.426 311.395,951.411 298.94,983.779C284.379,1021.62 283.226,1064.41 295.377,1103.07L366.613,1103.07L369.035,1101.27C375.678,1096.31 379.579,1088.5 379.549,1080.21L379.549,860.29Z" style="fill:rgb(77,192,77);"/>
        <path d="M358.889,698.121L153.251,698.121C153.251,700.465 153.006,702.788 152.533,705.057L359.607,705.057C359.133,702.788 358.889,700.465 358.889,698.121Z" style="fill:rgb(30,156,66);fill-rule:nonzero;"/>
        <path d="M358.609,700.064L153.251,700.064C149.494,700.064 146.449,697.02 146.449,693.263C146.449,689.506 149.494,686.461 153.251,686.461L358.609,686.461C362.366,686.461 365.412,689.506 365.412,693.263C365.412,697.02 362.366,700.064 358.609,700.064Z" style="fill:rgb(186,201,219);fill-rule:nonzero;"/>
        <path d="M145.527,1103.07C147.471,1104.53 149.096,1107.29 150.346,1110.09C152.668,1115.29 157.923,1118.56 163.617,1118.56L347.421,1118.56C353.094,1118.56 358.178,1115.24 360.662,1110.14C362.006,1107.38 364.073,1104.94 366.613,1103.07L145.527,1103.07Z" style="fill:rgb(148,171,188);fill-rule:nonzero;"/>
        <path d="M185.478,1080.21L185.478,744.031C185.488,738.408 187.069,732.941 188.83,728.44L192.723,718.489C194.289,714.487 195.363,709.897 195.891,705.057L172.553,705.057C171.798,709.897 170.26,714.487 168.018,718.489L162.444,728.44C159.923,732.941 157.66,738.408 157.645,744.031L157.645,1080.21C157.623,1088.5 160.539,1096.31 165.505,1101.27L167.316,1103.07L192.233,1103.07L190.968,1101.27C187.499,1096.31 185.462,1088.5 185.478,1080.21Z" style="fill:rgb(129,218,131);fill-rule:nonzero;"/>
        <path d="M379.549,792.331C372.182,804.413 363.678,815.88 354.609,826.564C325.523,860.83 290.269,889.406 260.719,923.272C231.169,957.138 206.816,998.6 206.311,1043.54C206.08,1064.15 210.998,1084.8 220.519,1103.07L295.377,1103.07C283.226,1064.41 284.379,1021.62 298.94,983.779C311.395,951.411 332.82,923.426 353.788,895.801C362.605,884.185 371.445,872.447 379.549,860.29L379.549,792.331Z" style="fill:rgb(255,200,75);"/>
    </g>
</svg>
