<?xml version="1.0" encoding="UTF-8" standalone="no"?>
<!DOCTYPE svg PUBLIC "-//W3C//DTD SVG 1.1//EN" "http://www.w3.org/Graphics/SVG/1.1/DTD/svg11.dtd">
<svg width="100%" height="100%" viewBox="0 0 247 433" version="1.1" xmlns="http://www.w3.org/2000/svg" xmlns:xlink="http://www.w3.org/1999/xlink" xml:space="preserve" xmlns:serif="http://www.serif.com/" style="fill-rule:evenodd;clip-rule:evenodd;stroke-linejoin:round;stroke-miterlimit:2;">
    <g transform="matrix(1,0,0,1,-820.451,-128.63)">
        <path d="M1060.99,170.611L1053.53,160.659C1050.53,156.657 1048.48,152.067 1047.47,147.227L840.393,147.227C839.383,152.067 837.326,156.657 834.327,160.659L826.87,170.611C823.498,175.111 820.471,180.578 820.451,186.201L820.451,522.382C820.421,530.67 824.322,538.481 830.965,543.438L833.388,545.245L1054.47,545.245L1056.9,543.438C1063.54,538.481 1067.44,530.67 1067.41,522.382L1067.41,186.201C1067.39,180.578 1064.36,175.111 1060.99,170.611Z" style="fill:rgb(112,95,183);fill-rule:nonzero;"/>
        <path d="M1046.75,140.291L841.112,140.291C841.112,142.635 840.867,144.959 840.393,147.227L1047.47,147.227C1046.99,144.959 1046.75,142.635 1046.75,140.291Z" style="fill:rgb(87,72,150);fill-rule:nonzero;"/>
        <path d="M1046.47,142.235L841.111,142.235C837.354,142.235 834.31,139.189 834.31,135.433C834.31,131.676 837.354,128.63 841.111,128.63L1046.47,128.63C1050.23,128.63 1053.27,131.676 1053.27,135.433C1053.27,139.189 1050.23,142.235 1046.47,142.235Z" style="fill:rgb(186,201,219);fill-rule:nonzero;"/>
        <path d="M833.388,545.245C835.332,546.696 836.957,549.463 838.206,552.261C840.528,557.46 845.784,560.725 851.477,560.725L1035.28,560.725C1040.95,560.725 1046.04,557.41 1048.52,552.311C1049.87,549.552 1051.93,547.114 1054.47,545.245L833.388,545.245Z" style="fill:rgb(148,171,188);fill-rule:nonzero;"/>
        <path d="M1067.41,356.862L1067.41,307.119C1067.14,307.179 1066.87,307.244 1066.6,307.304C1014.36,318.978 960.341,320.816 907.943,331.777C877.612,338.122 847.117,348.147 820.451,363.669L820.451,506.694C838.128,469.988 866.193,438.246 900.812,416.718C935.89,394.906 976.344,383.699 1016.11,372.505C1033.27,367.675 1050.54,362.737 1067.41,356.862Z" style="fill:rgb(214,203,247);fill-rule:nonzero;"/>
        <path d="M873.338,522.382L873.338,186.201C873.349,180.578 874.929,175.111 876.69,170.611L880.584,160.659C882.149,156.657 883.224,152.067 883.751,147.227L860.413,147.227C859.659,152.067 858.12,156.657 855.879,160.659L850.304,170.611C847.783,175.111 845.52,180.578 845.505,186.201L845.505,522.382C845.483,530.67 848.399,538.481 853.365,543.438L855.176,545.245L880.093,545.245L878.828,543.438C875.359,538.481 873.323,530.67 873.338,522.382Z" style="fill:rgb(155,123,240);fill-rule:nonzero;"/>
        <path d="M845.505,351.089L845.505,466.516C853.852,455.88 863.173,446.011 873.338,437.107L873.338,340.765C863.881,343.748 854.563,347.172 845.505,351.089Z" style="fill:rgb(235,230,252);fill-rule:nonzero;"/>
    </g>
</svg>
