<?xml version="1.0" encoding="UTF-8" standalone="no"?>
<!DOCTYPE svg PUBLIC "-//W3C//DTD SVG 1.1//EN" "http://www.w3.org/Graphics/SVG/1.1/DTD/svg11.dtd">
<svg width="100%" height="100%" viewBox="0 0 247 433" version="1.1" xmlns="http://www.w3.org/2000/svg" xmlns:xlink="http://www.w3.org/1999/xlink" xml:space="preserve" xmlns:serif="http://www.serif.com/" style="fill-rule:evenodd;clip-rule:evenodd;stroke-linejoin:round;stroke-miterlimit:2;">
    <g transform="matrix(1,0,0,1,-820.451,-686.461)">
        <path d="M1060.99,728.44L1053.53,718.489C1050.53,714.487 1048.48,709.897 1047.47,705.057L840.393,705.057C839.383,709.897 837.326,714.487 834.327,718.489L826.87,728.44C823.498,732.941 820.471,738.408 820.451,744.031L820.451,1080.21C820.421,1088.5 824.322,1096.31 830.965,1101.27L833.388,1103.08L1054.47,1103.08L1056.9,1101.27C1063.54,1096.31 1067.44,1088.5 1067.41,1080.21L1067.41,744.031C1067.39,738.408 1064.36,732.941 1060.99,728.44Z" style="fill:rgb(20,194,182);fill-rule:nonzero;"/>
        <path d="M1046.75,698.121L841.112,698.121C841.112,700.465 840.867,702.788 840.393,705.057L1047.47,705.057C1046.99,702.788 1046.75,700.465 1046.75,698.121Z" style="fill:rgb(17,165,163);fill-rule:nonzero;"/>
        <path d="M1046.47,700.064L841.111,700.064C837.354,700.064 834.31,697.02 834.31,693.263C834.31,689.506 837.354,686.461 841.111,686.461L1046.47,686.461C1050.23,686.461 1053.27,689.506 1053.27,693.263C1053.27,697.02 1050.23,700.064 1046.47,700.064Z" style="fill:rgb(186,201,219);fill-rule:nonzero;"/>
        <path d="M833.388,1103.08C835.332,1104.53 836.957,1107.29 838.206,1110.09C840.528,1115.29 845.784,1118.56 851.477,1118.56L1035.28,1118.56C1040.95,1118.56 1046.04,1115.24 1048.52,1110.14C1049.87,1107.38 1051.93,1104.94 1054.47,1103.08L833.388,1103.08Z" style="fill:rgb(148,171,188);fill-rule:nonzero;"/>
        <path d="M873.338,1080.21L873.338,744.031C873.349,738.408 874.929,732.941 876.69,728.44L880.584,718.489C882.149,714.487 883.224,709.897 883.751,705.057L860.413,705.057C859.659,709.897 858.12,714.487 855.879,718.489L850.304,728.44C847.783,732.941 845.52,738.408 845.505,744.031L845.505,1080.21C845.483,1088.5 848.399,1096.31 853.365,1101.27L855.176,1103.08L880.093,1103.08L878.828,1101.27C875.359,1096.31 873.323,1088.5 873.338,1080.21Z" style="fill:rgb(64,219,211);fill-rule:nonzero;"/>
        <path d="M1056.84,914.618C1056.84,914.618 1056.92,915.37 1057.08,916.781C1057.18,917.662 1057.3,918.749 1057.45,920.027C1057.61,921.545 1057.83,923.415 1057.88,925.072C1058.11,928.565 1058.1,932.774 1057.85,937.521C1057.55,942.262 1056.89,947.527 1055.74,953.096C1053.48,964.236 1049.09,976.554 1042.39,988.282C1039.05,994.146 1035.17,999.885 1030.78,1005.27C1026.4,1010.66 1021.55,1015.72 1016.38,1020.32C1011.2,1024.92 1005.7,1029.05 1000.06,1032.65C997.239,1034.45 994.382,1036.12 991.518,1037.65L990.241,1038.35L989.21,1038.75C988.525,1039.02 987.841,1039.28 987.16,1039.54C985.66,1040.11 984.171,1040.67 982.694,1041.23C981.928,1041.51 981.158,1041.81 980.412,1042.06C979.671,1042.3 978.934,1042.53 978.2,1042.77C976.741,1043.24 975.294,1043.69 973.839,1044.07C970.963,1044.9 968.109,1045.55 965.349,1046.14C959.82,1047.31 954.536,1047.95 949.702,1048.29C947.293,1048.49 944.963,1048.5 942.784,1048.55C940.582,1048.5 938.528,1048.51 936.588,1048.35C932.726,1048.15 929.402,1047.66 926.711,1047.23C924.018,1046.73 921.945,1046.29 920.547,1045.9C919.155,1045.53 918.412,1045.34 918.412,1045.34C918.412,1045.34 919.172,1045.24 920.597,1045.05C922.012,1044.9 924.083,1044.53 926.656,1044C929.229,1043.41 932.309,1042.66 935.723,1041.48C937.435,1040.94 939.217,1040.21 941.078,1039.5C942.924,1038.7 944.851,1037.91 946.8,1036.92C950.708,1035 954.795,1032.74 958.847,1029.99C960.869,1028.6 962.91,1027.17 964.906,1025.6C965.919,1024.84 966.909,1024.02 967.894,1023.19C968.387,1022.78 968.882,1022.36 969.38,1021.95C969.865,1021.53 970.298,1021.1 970.759,1020.69C971.709,1019.8 972.667,1018.91 973.632,1018.02C974.165,1017.52 974.699,1017.02 975.235,1016.51L976.041,1015.76L976.091,1015.71C976.012,1015.76 976.339,1015.54 975.927,1015.8L976.018,1015.72L976.201,1015.56L976.566,1015.24C978.532,1013.55 980.451,1011.78 982.299,1009.93C985.996,1006.23 989.415,1002.22 992.451,998.008C995.489,993.8 998.144,989.395 1000.36,984.937C1002.6,980.485 1004.34,975.955 1005.69,971.551C1008.38,962.727 1009.27,954.386 1009.08,947.596C1008.99,944.194 1008.66,941.167 1008.21,938.572C1007.72,935.987 1007.23,933.804 1006.67,932.087C1006.42,931.124 1006.18,930.687 1005.99,930.188C1005.9,929.926 1005.81,929.684 1005.73,929.463C1005.59,929.05 1005.46,928.674 1005.35,928.338C1004.89,926.994 1004.65,926.277 1004.65,926.277C999.873,912.213 1007.4,896.942 1021.47,892.168C1035.53,887.394 1050.8,894.926 1055.58,908.99C1056.19,910.805 1056.62,912.788 1056.84,914.618Z" style="fill:rgb(233,240,248);fill-rule:nonzero;"/>
        <path d="M956.532,819.51C956.532,819.51 957.811,821.027 960.048,823.68C960.716,824.469 961.457,825.344 962.263,826.296C963.247,827.461 964.293,828.725 965.384,830.078C967.765,832.847 969.446,835.688 971.476,838.836C971.96,839.63 972.513,840.4 972.954,841.255C973.405,842.1 973.865,842.96 974.333,843.836C975.246,845.59 976.228,847.365 977.112,849.235C978.737,853.052 980.545,856.954 981.82,861.172C983.32,865.292 984.294,869.69 985.351,874.03C986.108,878.471 986.979,882.865 987.249,887.327C987.759,891.732 987.687,896.165 987.734,900.417C987.657,902.557 987.489,904.673 987.362,906.737C987.289,907.77 987.232,908.79 987.143,909.801C987.004,910.811 986.865,911.813 986.728,912.807C986.444,914.768 986.165,916.695 985.892,918.582C985.487,920.435 985.091,922.247 984.705,924.012C984.037,927.515 982.895,930.732 982.044,933.669C981.818,934.399 981.598,935.114 981.382,935.813C981.117,936.5 980.859,937.171 980.607,937.825C980.104,939.12 979.627,940.347 979.179,941.501C978.712,942.642 978.358,943.72 977.884,944.68C977.426,945.638 977.004,946.518 976.624,947.313C975.112,950.444 974.249,952.232 974.249,952.232C974.249,952.232 974.299,950.253 974.386,946.79C974.405,945.937 974.427,944.992 974.45,943.963C974.486,942.943 974.364,941.813 974.321,940.631C974.257,939.454 974.19,938.201 974.118,936.881C974.082,936.227 974.045,935.557 974.006,934.872C973.919,934.185 973.829,933.483 973.737,932.766C973.32,929.906 973.084,926.867 972.307,923.696C971.974,922.129 971.632,920.52 971.283,918.875C970.814,917.269 970.335,915.628 969.847,913.96C969.606,913.14 969.362,912.313 969.117,911.48C968.81,910.664 968.502,909.842 968.191,909.015C967.557,907.374 966.966,905.724 966.297,904.097C964.76,900.883 963.384,897.659 961.538,894.663C959.926,891.591 957.831,888.797 955.998,886.064C953.878,883.466 951.98,880.909 949.774,878.76C947.771,876.475 945.47,874.653 943.511,872.856C942.469,872.01 941.392,871.276 940.414,870.532C939.924,870.166 939.442,869.807 938.969,869.454C938.512,869.091 937.978,868.837 937.509,868.534C936.563,867.961 935.658,867.411 934.796,866.888C933.917,866.266 933.253,866.166 932.598,865.872C931.955,865.621 931.378,865.384 930.86,865.161C930.732,865.105 930.606,865.05 930.483,864.997C930.319,864.921 930.158,864.846 930.001,864.773C929.568,864.567 929.156,864.37 928.765,864.183C925.634,862.687 923.845,861.832 923.845,861.832L923.828,861.824C910.197,855.311 904.426,838.981 910.939,825.35C917.452,811.719 933.782,805.949 947.413,812.462C950.995,814.173 954.116,816.67 956.532,819.51Z" style="fill:rgb(233,240,248);fill-rule:nonzero;"/>
    </g>
</svg>
