<?xml version="1.0" encoding="UTF-8" standalone="no"?>
<!DOCTYPE svg PUBLIC "-//W3C//DTD SVG 1.1//EN" "http://www.w3.org/Graphics/SVG/1.1/DTD/svg11.dtd">
<svg width="100%" height="100%" viewBox="0 0 247 433" version="1.1" xmlns="http://www.w3.org/2000/svg" xmlns:xlink="http://www.w3.org/1999/xlink" xml:space="preserve" xmlns:serif="http://www.serif.com/" style="fill-rule:evenodd;clip-rule:evenodd;stroke-linejoin:round;stroke-miterlimit:2;">
    <g transform="matrix(1,0,0,1,-132.59,-128.63)">
        <path d="M373.13,170.611L365.673,160.659C362.674,156.657 360.617,152.067 359.607,147.227L152.533,147.227C151.523,152.067 149.465,156.657 146.467,160.659L139.01,170.611C135.638,175.111 132.61,180.578 132.59,186.201L132.59,522.382C132.561,530.67 136.461,538.481 143.104,543.438L145.527,545.245L366.613,545.245L369.035,543.438C375.678,538.481 379.579,530.67 379.549,522.382L379.549,186.201C379.529,180.578 376.502,175.111 373.13,170.611Z" style="fill:rgb(198,48,44);fill-rule:nonzero;"/>
        <path d="M358.889,140.291L153.251,140.291C153.251,142.635 153.006,144.959 152.533,147.227L359.607,147.227C359.133,144.959 358.889,142.635 358.889,140.291Z" style="fill:rgb(166,45,40);fill-rule:nonzero;"/>
        <path d="M294.033,140.291L256.07,140.291C256.07,142.065 256.772,144.392 258.021,147.227L294.261,147.227C294.115,144.915 294.033,142.603 294.033,140.291Z" style="fill:rgb(213,218,232);fill-rule:nonzero;"/>
        <path d="M258.021,147.227C269.416,173.088 316.383,241.884 316.383,331.208C316.383,430.324 241.56,551.008 241.56,551.008L311.524,551.008C311.524,551.008 326.1,450.864 326.1,330.236C326.1,253.109 297.566,199.809 294.261,147.227L258.021,147.227Z" style="fill:white;fill-rule:nonzero;"/>
        <path d="M358.609,142.235L153.251,142.235C149.494,142.235 146.449,139.189 146.449,135.433C146.449,131.676 149.494,128.63 153.251,128.63L358.609,128.63C362.366,128.63 365.412,131.676 365.412,135.433C365.412,139.189 362.366,142.235 358.609,142.235Z" style="fill:rgb(186,201,219);fill-rule:nonzero;"/>
        <path d="M145.527,545.245C147.471,546.696 149.096,549.463 150.346,552.261C152.668,557.46 157.923,560.725 163.617,560.725L347.421,560.725C353.094,560.725 358.178,557.41 360.662,552.311C362.006,549.552 364.073,547.114 366.613,545.245L145.527,545.245Z" style="fill:rgb(148,171,188);fill-rule:nonzero;"/>
        <path d="M185.478,522.382L185.478,186.201C185.488,180.578 187.069,175.111 188.83,170.611L192.723,160.659C194.289,156.657 195.363,152.067 195.891,147.227L172.553,147.227C171.798,152.067 170.26,156.657 168.018,160.659L162.444,170.611C159.923,175.111 157.66,180.578 157.645,186.201L157.645,522.382C157.623,530.67 160.539,538.481 165.505,543.438L167.316,545.245L192.233,545.245L190.968,543.438C187.499,538.481 185.462,530.67 185.478,522.382Z" style="fill:rgb(234,72,64);fill-rule:nonzero;"/>
    </g>
</svg>
