<?xml version="1.0" encoding="UTF-8" standalone="no"?>
<!DOCTYPE svg PUBLIC "-//W3C//DTD SVG 1.1//EN" "http://www.w3.org/Graphics/SVG/1.1/DTD/svg11.dtd">
<svg width="100%" height="100%" viewBox="0 0 247 433" version="1.1" xmlns="http://www.w3.org/2000/svg" xmlns:xlink="http://www.w3.org/1999/xlink" xml:space="preserve" xmlns:serif="http://www.serif.com/" style="fill-rule:evenodd;clip-rule:evenodd;stroke-linejoin:round;stroke-miterlimit:2;">
    <g transform="matrix(1,0,0,1,-476.52,-686.461)">
        <path d="M717.06,728.44L709.603,718.489C706.605,714.487 704.547,709.897 703.537,705.057L496.463,705.057C495.453,709.897 493.395,714.487 490.397,718.489L482.94,728.44C479.568,732.941 476.541,738.408 476.52,744.031L476.52,1080.21C476.491,1088.5 480.392,1096.31 487.035,1101.27L489.457,1103.08L710.543,1103.08L712.965,1101.27C719.608,1096.31 723.509,1088.5 723.48,1080.21L723.48,744.031C723.459,738.408 720.432,732.941 717.06,728.44Z" style="fill:rgb(254,139,40);fill-rule:nonzero;"/>
        <path d="M702.819,698.121L497.181,698.121C497.181,700.465 496.936,702.788 496.463,705.057L703.537,705.057C703.064,702.788 702.819,700.465 702.819,698.121Z" style="fill:rgb(237,118,38);fill-rule:nonzero;"/>
        <path d="M702.54,700.064L497.181,700.064C493.424,700.064 490.379,697.02 490.379,693.263C490.379,689.506 493.424,686.461 497.181,686.461L702.54,686.461C706.297,686.461 709.342,689.506 709.342,693.263C709.342,697.02 706.297,700.064 702.54,700.064Z" style="fill:rgb(186,201,219);fill-rule:nonzero;"/>
        <path d="M489.457,1103.08C491.402,1104.53 493.026,1107.29 494.276,1110.09C496.598,1115.29 501.853,1118.56 507.547,1118.56L691.352,1118.56C697.024,1118.56 702.108,1115.24 704.593,1110.14C705.936,1107.38 708.003,1104.94 710.543,1103.08L489.457,1103.08Z" style="fill:rgb(148,171,188);fill-rule:nonzero;"/>
        <path d="M529.408,1080.21L529.408,744.031C529.418,738.408 530.999,732.941 532.76,728.44L536.654,718.489C538.219,714.487 539.294,709.897 539.821,705.057L516.482,705.057C515.728,709.897 514.19,714.487 511.949,718.489L506.374,728.44C503.853,732.941 501.59,738.408 501.575,744.031L501.575,1080.21C501.553,1088.5 504.469,1096.31 509.435,1101.27L511.246,1103.07L536.163,1103.07L534.898,1101.27C531.429,1096.31 529.392,1088.5 529.408,1080.21Z" style="fill:rgb(255,168,58);fill-rule:nonzero;"/>
        <path d="M598.73,1048.37C597.223,1054.93 590.68,1059.03 584.115,1057.52C577.551,1056.02 573.451,1049.47 574.958,1042.91C576.464,1036.34 583.007,1032.24 589.572,1033.75C596.136,1035.26 600.237,1041.8 598.73,1048.37Z" style="fill:rgb(255,168,58);fill-rule:nonzero;"/>
        <path d="M586.833,1036.31C582.465,1036.31 578.732,1039.29 577.753,1043.55C577.195,1045.98 577.617,1048.48 578.94,1050.59C580.263,1052.7 582.329,1054.17 584.757,1054.73C585.448,1054.89 586.154,1054.97 586.854,1054.97C591.222,1054.97 594.956,1051.99 595.935,1047.72C597.085,1042.71 593.943,1037.7 588.93,1036.55C588.239,1036.39 587.533,1036.31 586.833,1036.31ZM586.854,1060.7C585.723,1060.7 584.585,1060.57 583.474,1060.32C579.552,1059.42 576.216,1057.04 574.08,1053.64C571.943,1050.23 571.262,1046.19 572.162,1042.27C573.743,1035.38 579.776,1030.57 586.833,1030.57C587.964,1030.57 589.102,1030.7 590.213,1030.96C598.308,1032.81 603.383,1040.91 601.525,1049.01C599.944,1055.89 593.912,1060.7 586.854,1060.7Z" style="fill:rgb(255,200,75);fill-rule:nonzero;"/>
        <path d="M658.736,910.038C654.323,929.265 635.159,941.274 615.932,936.861C596.706,932.448 584.697,913.284 589.11,894.057C593.523,874.831 612.687,862.822 631.913,867.235C651.14,871.648 663.149,890.812 658.736,910.038Z" style="fill:rgb(255,168,58);fill-rule:nonzero;"/>
        <path d="M623.891,869.189C608.505,869.189 595.352,879.679 591.905,894.699C589.942,903.251 591.427,912.057 596.086,919.491C600.746,926.927 608.021,932.104 616.574,934.066C619.003,934.624 621.486,934.906 623.954,934.906C639.34,934.906 652.493,924.416 655.941,909.396C659.992,891.742 648.926,874.082 631.271,870.029C628.842,869.472 626.358,869.189 623.891,869.189ZM623.954,940.642C621.055,940.642 618.141,940.311 615.291,939.656C605.245,937.351 596.699,931.271 591.226,922.537C585.753,913.804 584.009,903.462 586.314,893.416C590.363,875.774 605.815,863.453 623.891,863.453C626.79,863.453 629.705,863.785 632.555,864.439C653.291,869.199 666.29,889.942 661.531,910.68C657.482,928.321 642.029,940.642 623.954,940.642Z" style="fill:rgb(255,200,75);fill-rule:nonzero;"/>
        <path d="M687.362,1010.41C684.252,1023.96 670.743,1032.43 657.191,1029.32C643.638,1026.21 635.173,1012.7 638.284,999.145C641.394,985.592 654.903,977.127 668.455,980.238C682.008,983.349 690.473,996.857 687.362,1010.41Z" style="fill:rgb(255,168,58);fill-rule:nonzero;"/>
        <path d="M662.799,982.462C652.352,982.462 643.42,989.586 641.078,999.786C639.745,1005.59 640.754,1011.57 643.918,1016.62C647.083,1021.67 652.023,1025.19 657.832,1026.52C659.482,1026.9 661.169,1027.09 662.845,1027.09C673.294,1027.09 682.227,1019.97 684.567,1009.77C687.318,997.778 679.803,985.785 667.813,983.033C666.162,982.654 664.476,982.462 662.799,982.462ZM662.845,1032.83C660.738,1032.83 658.62,1032.59 656.549,1032.11C649.248,1030.44 643.036,1026.02 639.058,1019.67C635.08,1013.32 633.813,1005.8 635.488,998.503C638.432,985.682 649.662,976.727 662.799,976.727C664.907,976.727 667.025,976.968 669.097,977.443C684.169,980.902 693.616,995.979 690.157,1011.05C687.215,1023.87 675.983,1032.83 662.845,1032.83Z" style="fill:rgb(255,200,75);fill-rule:nonzero;"/>
    </g>
</svg>
